<?xml version="1.0" standalone="no"?>
<!DOCTYPE svg PUBLIC "-//W3C//DTD SVG 20010904//EN"
 "http://www.w3.org/TR/2001/REC-SVG-20010904/DTD/svg10.dtd">
<svg version="1.0" xmlns="http://www.w3.org/2000/svg"
 width="1024.000000pt" height="1024.000000pt" viewBox="0 0 1024.000000 1024.000000"
 preserveAspectRatio="xMidYMid meet">
<metadata>
Created by potrace 1.11, written by Peter Selinger 2001-2013
</metadata>
<g transform="translate(0.000000,1024.000000) scale(0.100000,-0.100000)"
fill="#000000" stroke="none">
<path d="M17 10222 c-16 -17 -17 -386 -17 -5104 0 -4913 1 -5085 18 -5101 17
-16 386 -17 5104 -17 4913 0 5085 1 5101 18 16 17 17 386 17 5104 0 4913 -1
5085 -18 5101 -17 16 -386 17 -5104 17 -4913 0 -5085 -1 -5101 -18z m2968
-622 c-3 -5 -13 -10 -21 -10 -8 0 -14 5 -14 10 0 6 9 10 21 10 11 0 17 -4 14
-10z m4375 -10 c19 0 42 -5 50 -10 13 -9 13 -11 0 -19 -23 -15 -6 -22 63 -27
36 -2 78 -9 92 -14 20 -8 31 -7 42 1 10 9 17 9 25 1 7 -7 22 -12 34 -12 12 0
27 -7 34 -15 7 -8 29 -15 49 -15 47 0 85 -20 89 -47 2 -16 12 -22 38 -25 39
-5 56 9 30 24 -18 10 -19 17 -8 36 13 19 66 -3 93 -40 13 -17 31 -38 39 -46 8
-9 20 -29 25 -45 6 -19 24 -37 47 -49 42 -22 74 -17 83 13 9 27 25 14 25 -22
0 -29 -1 -29 -55 -29 -47 0 -55 -3 -55 -18 0 -31 -12 -33 -36 -7 -13 14 -28
25 -34 25 -5 0 -10 11 -10 25 0 25 -18 31 -74 25 -10 -1 -22 3 -26 9 -3 7 -30
15 -59 20 -32 5 -59 16 -72 30 -11 11 -25 21 -32 21 -18 1 -62 37 -63 52 0 7
-2 21 -2 31 -2 18 -32 25 -32 7 0 -5 -7 -10 -15 -10 -8 0 -15 -6 -15 -14 0 -7
-9 -16 -19 -19 -13 -3 -21 -17 -26 -46 -6 -36 -4 -44 17 -61 12 -11 37 -19 55
-20 17 0 35 -4 38 -10 3 -5 21 -10 38 -10 18 -1 43 -7 57 -15 14 -8 42 -14 63
-15 20 0 61 -12 90 -26 28 -14 68 -30 87 -34 104 -24 121 -42 79 -83 -24 -22
-24 -36 -1 -44 9 -4 20 -11 23 -16 4 -5 25 -11 48 -12 23 -1 43 -4 44 -6 23
-32 37 -62 37 -78 0 -11 5 -23 10 -26 6 -3 10 -17 10 -30 0 -13 -4 -27 -10
-30 -5 -3 -10 -16 -10 -28 0 -12 -11 -34 -25 -49 -14 -15 -25 -34 -25 -43 0
-21 -60 -45 -81 -32 -12 7 -24 3 -47 -18 -18 -16 -32 -32 -32 -37 0 -13 -26
-38 -39 -38 -15 0 -14 -26 2 -42 18 -18 67 -91 67 -100 0 -12 -89 -50 -100
-43 -6 3 -10 28 -10 56 0 46 -2 49 -25 49 -19 0 -25 5 -25 23 0 13 -5 28 -12
35 -15 15 -54 16 -63 2 -3 -5 -17 -10 -31 -10 -19 0 -24 5 -24 25 0 14 -4 25
-10 25 -5 0 -10 -4 -10 -10 0 -5 -6 -10 -14 -10 -8 0 -16 -7 -20 -15 -3 -8
-15 -15 -26 -15 -25 0 -25 -5 -2 -30 12 -13 30 -18 65 -18 57 1 83 -16 46 -31
-13 -5 -35 -19 -48 -32 l-24 -22 22 -18 c11 -9 21 -27 21 -38 0 -12 6 -21 13
-21 20 0 34 -31 35 -81 2 -39 -3 -53 -33 -90 -19 -24 -35 -49 -35 -56 0 -7
-17 -25 -37 -40 -21 -15 -49 -38 -63 -50 -17 -16 -38 -23 -65 -23 -22 0 -49
-7 -59 -15 -11 -8 -30 -15 -42 -15 -41 0 -54 -11 -54 -44 0 -47 -52 -93 -86
-77 -18 8 -24 19 -24 41 0 19 5 30 14 30 20 0 27 13 16 30 -10 16 -42 5 -79
-27 -31 -26 -26 -42 27 -92 45 -43 82 -110 82 -147 0 -29 -41 -74 -86 -94 -24
-11 -44 -25 -44 -30 0 -6 -7 -10 -15 -10 -8 0 -15 -4 -15 -9 0 -5 -13 -12 -30
-16 -25 -5 -30 -11 -30 -36 0 -34 -10 -37 -30 -9 -15 21 -40 27 -40 10 0 -5 7
-10 15 -10 8 0 15 -7 15 -15 0 -8 5 -15 10 -15 6 0 10 -18 10 -39 0 -22 6 -46
13 -53 21 -21 26 -55 11 -75 -18 -24 -17 -26 6 -51 12 -13 33 -22 49 -22 21 0
30 -6 35 -22 3 -13 1 -27 -4 -32 -6 -6 -10 -25 -10 -43 0 -30 3 -33 29 -33 16
0 42 -7 57 -15 20 -11 43 -14 75 -9 60 7 139 -25 139 -57 0 -17 -5 -20 -22
-16 -13 3 -66 9 -118 12 -102 7 -176 30 -183 56 -3 9 -20 19 -41 23 -20 4 -36
11 -36 16 0 5 -10 12 -22 15 -11 4 -31 18 -43 31 -12 13 -27 24 -32 24 -5 0
-18 16 -29 35 -21 39 -34 45 -34 15 0 -22 -20 -26 -38 -8 -18 18 -14 38 8 38
11 0 20 5 20 10 0 6 -4 10 -10 10 -5 0 -10 7 -10 15 0 8 -4 15 -10 15 -5 0
-10 -7 -10 -16 0 -11 -8 -14 -27 -12 -22 2 -29 9 -33 33 l-6 30 -18 -32 c-24
-39 -46 -50 -118 -58 -32 -4 -58 -11 -58 -16 0 -5 -18 -9 -40 -9 -27 0 -40 4
-40 14 0 8 -16 16 -40 20 -22 3 -40 10 -40 15 0 5 -18 11 -39 15 -22 3 -46 13
-55 21 -8 8 -32 19 -53 23 -26 6 -37 13 -35 24 1 10 -7 18 -23 22 -31 8 -32
30 -3 50 26 18 19 31 -13 21 -17 -6 -19 -9 -8 -16 8 -5 11 -9 7 -9 -3 0 -13
-3 -21 -6 -9 -3 -16 3 -20 15 -6 24 -35 28 -43 6 -9 -22 -34 -18 -34 5 0 11
-7 23 -15 26 -8 4 -15 15 -15 25 0 10 -5 19 -10 19 -6 0 -8 16 -4 41 4 23 2
50 -5 65 -25 53 -30 70 -33 98 -4 41 -28 47 -28 7 0 -17 -4 -31 -10 -31 -5 0
-10 14 -10 30 0 17 5 30 11 30 7 0 9 15 5 45 -3 25 -9 65 -12 90 -5 36 -10 45
-26 45 -25 0 -57 38 -58 68 0 12 -6 25 -14 28 -8 3 -17 17 -20 30 -6 24 -10
25 -69 23 -34 -1 -83 2 -109 6 -56 9 -63 -4 -22 -40 16 -14 27 -33 27 -49 0
-14 -12 -41 -27 -60 -14 -19 -26 -38 -26 -43 0 -4 -12 -19 -25 -32 -14 -13
-25 -27 -25 -32 0 -5 -7 -9 -15 -9 -8 0 -15 -4 -15 -10 0 -5 -4 -10 -8 -10 -5
0 -28 -18 -52 -40 -24 -22 -47 -40 -51 -40 -10 0 -69 -56 -69 -65 0 -14 32
-38 38 -28 6 8 65 33 80 33 18 0 -45 -251 -78 -307 -11 -19 -20 -49 -20 -68 0
-19 -4 -37 -10 -40 -5 -3 -10 -37 -10 -75 0 -38 5 -72 10 -75 6 -3 10 -24 10
-46 0 -21 4 -39 8 -39 4 0 16 -26 26 -57 9 -32 22 -71 28 -88 6 -16 12 -64 13
-105 2 -59 8 -85 29 -123 26 -47 34 -97 17 -97 -5 0 -12 11 -15 25 -4 14 -11
25 -16 25 -6 0 -10 8 -10 19 0 10 -7 24 -15 31 -8 7 -15 23 -15 35 0 13 -3 25
-7 27 -13 5 -43 68 -43 88 0 10 -7 31 -15 46 -8 16 -15 37 -15 46 0 9 -4 20
-10 23 -5 3 -10 16 -10 28 0 13 -6 31 -14 42 -7 11 -16 38 -19 60 -6 45 -24
124 -38 171 -5 17 -9 53 -9 81 0 28 -7 70 -15 93 -18 51 -22 379 -4 411 5 11
13 58 16 105 3 46 10 87 15 90 4 3 8 21 8 40 0 19 7 51 15 71 8 19 15 46 15
58 0 13 7 36 14 52 8 15 17 36 20 46 3 9 13 17 23 17 19 0 43 41 43 71 0 10 7
25 16 34 15 15 15 17 -1 35 -18 20 -14 70 5 70 6 0 10 11 10 24 0 14 5 28 11
31 5 4 14 18 19 31 10 25 45 33 52 13 7 -20 47 13 53 43 7 31 -2 68 -16 68 -5
0 -9 7 -9 15 0 8 5 15 10 15 6 0 10 6 10 14 0 8 6 21 13 28 6 7 21 29 31 48
11 19 25 40 30 46 6 6 22 25 36 43 14 18 31 39 38 46 6 8 12 18 12 24 0 6 7
11 15 11 8 0 15 4 15 9 0 10 107 121 116 121 3 0 19 14 36 30 16 17 33 30 38
30 5 0 25 16 45 35 26 26 48 37 80 42 25 3 45 10 45 14 0 5 7 9 15 9 9 0 18 7
21 15 4 8 17 15 29 15 13 0 27 5 30 10 3 6 17 10 29 10 13 0 37 7 52 15 16 8
37 15 47 15 9 0 17 4 17 9 0 5 23 11 52 13 29 3 54 11 56 17 5 16 42 13 48 -4
7 -17 34 -21 34 -5 0 20 33 47 51 43 20 -6 27 -23 9 -23 -5 0 -10 -7 -10 -15
0 -8 -7 -15 -15 -15 -8 0 -15 -4 -15 -10 0 -15 19 -12 36 5 9 8 33 15 55 15
44 0 45 1 23 35 -9 13 -13 29 -10 34 10 15 106 9 106 -6 0 -15 115 -19 124 -5
3 5 31 8 64 7 32 -2 87 3 123 10 102 21 110 25 107 49 -3 21 -36 35 -47 19 -3
-5 -19 -17 -36 -28 -24 -15 -47 -19 -117 -18 -70 1 -88 -2 -88 -13 0 -16 -18
-18 -39 -5 -26 17 -4 41 38 41 22 0 46 6 53 14 14 13 35 18 161 35 38 5 74 14
80 20 7 7 14 8 21 1 5 -5 26 -10 46 -10z m-4485 -9 c27 -6 28 -8 10 -14 -12
-4 -28 -19 -37 -34 -17 -30 -28 -140 -15 -160 12 -20 -4 -93 -23 -103 -15 -8
-19 -4 -24 22 -3 17 -6 63 -6 102 0 93 -24 162 -59 171 -24 7 -25 8 -6 15 24
10 118 10 160 1z m5168 -131 c16 0 -14 -20 -30 -20 -7 0 -13 7 -13 16 0 11 5
14 16 10 9 -3 21 -6 27 -6z m87 -89 c7 -14 7 -22 -2 -27 -6 -4 -14 -2 -16 4
-2 7 -10 12 -18 12 -8 0 -14 7 -14 15 0 22 37 18 50 -4z m-455 -21 c3 -5 -3
-10 -14 -10 -12 0 -21 5 -21 10 0 6 6 10 14 10 8 0 18 -4 21 -10z m-5665 -74
c0 -3 -4 -8 -10 -11 -5 -3 -10 -1 -10 4 0 6 5 11 10 11 6 0 10 -2 10 -4z
m1600 -23 c0 -19 -3 -24 -10 -17 -6 6 -8 18 -4 27 9 24 14 21 14 -10z m-790
-36 c0 -7 18 -46 40 -87 22 -41 43 -83 46 -92 4 -10 10 -18 14 -18 4 0 11 -11
14 -25 4 -14 11 -25 16 -25 6 0 10 -7 10 -15 0 -8 4 -15 8 -15 4 0 15 -12 24
-27 9 -16 28 -40 42 -55 14 -15 26 -32 26 -38 0 -5 5 -10 10 -10 6 0 24 -16
41 -35 26 -29 39 -35 90 -41 33 -4 62 -11 65 -15 7 -12 171 -11 179 1 3 6 26
10 51 10 28 0 43 -4 39 -10 -3 -5 -21 -10 -40 -10 -18 0 -35 -5 -37 -12 -4
-11 -48 -20 -203 -38 -44 -5 -109 -15 -145 -21 -92 -16 -553 -6 -695 15 -60 9
-134 20 -164 25 -30 4 -57 13 -59 19 -2 7 -19 12 -38 12 -19 0 -34 5 -34 10 0
6 18 10 40 10 22 0 40 -4 40 -10 0 -13 137 -13 145 -1 3 5 31 15 63 21 52 10
63 17 120 78 34 36 62 71 62 77 0 5 18 30 40 53 22 24 40 50 40 58 0 8 4 14 8
14 5 0 17 17 28 38 10 20 22 39 25 42 3 3 12 19 21 35 42 84 68 115 68 82z
m790 -98 c0 -37 -4 -58 -10 -54 -16 10 -11 115 6 115 2 0 4 -27 4 -61z m-1600
-10 c0 -21 -4 -39 -10 -39 -5 0 -10 21 -10 46 0 27 4 43 10 39 6 -3 10 -24 10
-46z m-483 -50 c-14 -8 -22 -8 -30 0 -8 8 -3 11 19 11 25 -1 27 -2 11 -11z
m68 -19 c3 -5 -3 -10 -15 -10 -12 0 -18 5 -15 10 3 6 10 10 15 10 5 0 12 -4
15 -10z m444 -131 c1 -59 -2 -68 -27 -92 -56 -53 -92 -26 -37 28 33 33 35 40
35 98 0 34 3 73 7 87 7 23 8 21 15 -15 4 -22 7 -70 7 -106z m2071 131 c0 -5
-12 -10 -27 -10 -22 0 -25 2 -13 10 20 13 40 13 40 0z m-520 -96 c0 -56 3 -63
37 -97 20 -20 40 -37 45 -37 18 0 6 -20 -16 -26 -18 -4 -32 2 -60 29 -39 38
-44 67 -30 171 9 64 24 39 24 -40z m-1945 66 c3 -5 -1 -10 -9 -10 -9 0 -16 5
-16 10 0 6 4 10 9 10 6 0 13 -4 16 -10z m2395 0 c0 -5 -7 -10 -15 -10 -8 0
-15 5 -15 10 0 6 7 10 15 10 8 0 15 -4 15 -10z m-2345 -30 c-3 -5 -10 -10 -16
-10 -5 0 -9 5 -9 10 0 6 7 10 16 10 8 0 12 -4 9 -10z m2285 0 c0 -5 -7 -10
-15 -10 -8 0 -15 5 -15 10 0 6 7 10 15 10 8 0 15 -4 15 -10z m-2213 -47 c12
-13 29 -23 38 -23 8 0 15 -4 15 -10 0 -5 6 -10 14 -10 18 0 30 -17 17 -24 -5
-4 -16 1 -24 9 -9 8 -22 15 -29 15 -17 1 -48 24 -48 38 0 5 -11 13 -25 16 -14
4 -23 11 -20 16 8 13 36 1 62 -27z m2163 22 c0 -8 -7 -15 -15 -15 -8 0 -15 -4
-15 -9 0 -5 -11 -12 -25 -15 -14 -4 -25 -11 -25 -16 0 -6 -7 -10 -15 -10 -8 0
-15 -4 -15 -10 0 -5 -9 -10 -20 -10 -11 0 -20 5 -20 10 0 6 9 10 20 10 11 0
20 5 20 10 0 6 6 10 14 10 8 0 16 7 20 15 3 8 15 15 26 15 11 0 20 7 20 15 0
8 7 15 15 15 8 0 15 -7 15 -15z m-2030 -105 c0 -5 -9 -10 -20 -10 -11 0 -20 5
-20 10 0 6 9 10 20 10 11 0 20 -4 20 -10z m1870 0 c0 -5 -7 -10 -15 -10 -8 0
-15 5 -15 10 0 6 7 10 15 10 8 0 15 -4 15 -10z m-1830 -26 c0 -2 -7 -4 -15 -4
-8 0 -15 4 -15 10 0 5 7 7 15 4 8 -4 15 -8 15 -10z m1775 -4 c-3 -5 -10 -10
-16 -10 -5 0 -9 5 -9 10 0 6 7 10 16 10 8 0 12 -4 9 -10z m-1620 -70 c4 -6 -5
-10 -20 -10 -15 0 -24 4 -20 10 3 6 12 10 20 10 8 0 17 -4 20 -10z m1495 0 c0
-5 -12 -10 -27 -10 -22 0 -25 2 -13 10 20 13 40 13 40 0z m4849 -20 c6 0 11
-4 11 -10 0 -5 -14 -10 -31 -10 -24 0 -30 3 -25 16 3 9 6 21 6 27 0 7 7 4 14
-5 7 -10 18 -18 25 -18z m-21 -180 c-1 -76 -2 -80 -24 -80 -12 0 -44 -9 -69
-20 -38 -16 -50 -18 -62 -8 -12 10 -18 9 -29 -6 -13 -18 -15 -18 -39 -2 -36
24 -23 36 41 36 39 0 54 4 54 14 0 7 15 21 34 30 39 19 66 55 66 91 0 15 6 25
14 25 12 0 15 -16 14 -80z m-260 -167 c-4 -45 -19 -52 -35 -16 -19 40 -16 53
13 53 23 0 25 -3 22 -37z m-4426 11 c61 -5 93 -13 120 -31 21 -12 46 -23 55
-23 10 0 27 -7 37 -15 11 -8 30 -15 43 -15 13 0 23 -4 23 -10 0 -5 7 -10 16
-10 45 0 117 -62 152 -130 12 -25 27 -52 31 -60 38 -67 85 -196 121 -335 19
-70 21 -109 21 -305 0 -132 -4 -246 -11 -275 -6 -27 -15 -68 -20 -90 -13 -64
-30 -114 -40 -120 -6 -4 -10 -19 -10 -35 0 -16 -6 -41 -14 -57 -8 -15 -38 -77
-67 -138 -29 -60 -59 -116 -66 -123 -7 -7 -13 -17 -13 -20 0 -4 -10 -19 -22
-33 -29 -32 -47 -59 -54 -81 -4 -10 -10 -18 -15 -18 -5 0 -9 -6 -9 -13 0 -7
-18 -32 -40 -56 -22 -23 -40 -46 -40 -50 0 -7 -53 -64 -92 -98 -7 -7 -18 -18
-24 -25 -21 -25 -74 -68 -83 -68 -5 0 -11 -4 -13 -8 -1 -4 -20 -18 -40 -31
-21 -12 -38 -27 -38 -32 0 -5 -5 -9 -10 -9 -6 0 -18 -6 -26 -12 -34 -29 -40
-33 -54 -36 -8 -2 -22 -10 -31 -18 -8 -8 -21 -14 -27 -14 -7 0 -20 -4 -30 -9
-44 -24 -87 -41 -103 -41 -10 0 -21 -4 -24 -10 -3 -5 -13 -10 -22 -10 -8 0
-29 -6 -46 -13 -66 -28 -124 -43 -172 -46 -27 -2 -56 -8 -64 -14 -19 -16 -452
-17 -472 -1 -8 6 -36 12 -64 13 -27 2 -63 9 -80 17 -16 7 -45 15 -62 16 -18 1
-33 5 -33 9 0 4 -18 10 -40 14 -22 4 -42 11 -46 16 -3 5 -14 9 -25 9 -10 0
-19 4 -19 9 0 5 -13 12 -30 16 -17 4 -30 11 -30 16 0 5 -13 9 -30 9 -16 0 -33
6 -37 13 -4 7 -25 21 -45 31 -21 9 -38 20 -38 24 0 4 -16 16 -35 26 -19 11
-35 23 -35 28 0 4 -6 8 -13 8 -7 0 -26 10 -42 23 -41 31 -185 172 -185 181 0
3 -12 20 -28 35 -40 43 -52 59 -52 71 0 5 -4 10 -8 10 -5 0 -17 17 -28 38 -10
20 -28 46 -40 57 -11 11 -29 36 -40 55 -10 19 -25 41 -31 48 -7 7 -13 20 -13
28 0 8 -4 14 -8 14 -9 0 -42 70 -42 88 0 7 -4 12 -9 12 -5 0 -13 14 -16 32 -4
17 -15 45 -25 62 -9 17 -24 58 -34 91 -9 33 -22 75 -27 92 -41 133 -64 488
-37 591 5 20 11 54 13 75 2 22 11 60 19 85 8 26 27 83 41 127 28 86 56 148 68
153 4 2 7 8 7 14 0 20 84 148 97 148 7 0 13 4 13 8 0 12 151 71 183 72 9 0 41
12 70 27 l52 28 878 1 c482 1 881 4 885 8 4 5 26 5 49 2 23 -3 79 -8 125 -12z
m4106 -285 c-3 -46 -28 -73 -49 -52 -15 15 -2 73 17 73 8 0 14 5 14 10 0 6 5
10 11 10 6 0 9 -17 7 -41z m30 -231 c2 -22 -1 -38 -7 -38 -15 0 -14 -43 1 -58
9 -9 7 -13 -5 -18 -9 -3 -17 -14 -17 -24 0 -11 -4 -22 -10 -25 -6 -4 -10 8
-10 29 0 23 -6 38 -17 45 -14 7 -17 21 -15 61 3 66 7 72 45 68 29 -3 32 -7 35
-40z m52 -128 c0 -5 -4 -10 -10 -10 -5 0 -10 5 -10 10 0 6 5 10 10 10 6 0 10
-4 10 -10z m-1810 -55 c0 -8 -7 -15 -15 -15 -8 0 -15 7 -15 15 0 8 7 15 15 15
8 0 15 -7 15 -15z m1890 0 c0 -8 -9 -15 -20 -15 -11 0 -20 7 -20 15 0 8 9 15
20 15 11 0 20 -7 20 -15z m-94 -21 c28 -29 30 -44 8 -44 -22 0 -44 25 -44 49
0 27 8 26 36 -5z m118 -86 c3 -14 0 -27 -8 -33 -8 -6 -15 -19 -17 -30 -7 -33
-38 -31 -50 4 -8 22 -18 31 -39 33 -27 3 -28 4 -13 23 11 14 17 16 20 8 6 -17
28 -16 43 2 19 23 57 19 64 -7z m-334 -58 c5 0 20 -11 34 -23 25 -24 25 -24 6
-45 -25 -26 -27 -87 -4 -96 14 -5 13 -10 -9 -32 -15 -14 -29 -35 -32 -45 -4
-10 -11 -19 -16 -19 -5 0 -9 -9 -9 -20 0 -21 -44 -70 -63 -70 -7 0 -23 7 -35
16 -12 8 -35 14 -50 13 -72 -6 -102 1 -112 24 -6 12 -14 29 -18 37 -38 67 -40
80 -13 104 12 11 21 14 26 7 11 -20 42 -12 53 14 9 19 19 25 43 25 21 0 37 8
51 25 11 14 25 25 31 25 7 0 32 18 57 40 25 22 47 35 48 30 2 -6 8 -10 12 -10z
m150 -185 c0 -8 -4 -15 -10 -15 -5 0 -10 7 -10 15 0 8 5 15 10 15 6 0 10 -7
10 -15z m0 -68 c31 2 33 0 18 -11 -22 -16 -23 -30 -3 -46 8 -7 15 -23 15 -36
0 -15 -6 -24 -15 -24 -8 0 -15 5 -15 11 0 6 -6 17 -14 25 -25 24 -36 16 -36
-26 0 -37 -16 -56 -24 -27 -2 6 -8 28 -15 48 -14 45 10 105 38 93 9 -4 32 -7
51 -7z m420 -11 c0 -13 7 -26 15 -30 23 -9 18 -28 -7 -24 -15 2 -24 11 -26 26
-2 12 -10 22 -18 22 -8 0 -14 7 -14 15 0 9 9 15 25 15 20 0 25 -5 25 -24z
m200 -47 c13 -7 12 -8 -2 -9 -9 0 -24 -10 -32 -22 -11 -16 -18 -18 -28 -10 -7
6 -31 12 -53 14 -32 3 -36 5 -20 12 11 4 34 14 50 22 29 13 53 11 85 -7z
m-1120 1 c0 -5 -4 -10 -10 -10 -5 0 -10 5 -10 10 0 6 5 10 10 10 6 0 10 -4 10
-10z m1118 -129 c3 -8 -1 -12 -9 -9 -7 2 -15 10 -17 17 -3 8 1 12 9 9 7 -2 15
-10 17 -17z m-508 -81 c0 -5 -7 -10 -15 -10 -8 0 -15 5 -15 10 0 6 7 10 15 10
8 0 15 -4 15 -10z m290 -80 c0 -5 16 -10 35 -10 19 0 35 -4 35 -10 0 -5 -4
-10 -8 -10 -13 0 -32 -48 -26 -65 4 -8 2 -15 -2 -15 -5 0 -15 -4 -23 -9 -12
-8 -12 -12 2 -25 8 -9 20 -16 26 -16 6 0 11 -5 11 -10 0 -6 12 -21 27 -34 14
-12 23 -28 20 -33 -8 -13 -47 -5 -47 8 0 5 -13 9 -29 9 -17 0 -33 5 -36 10
-11 18 -35 11 -35 -10 0 -21 -40 -38 -60 -25 -10 6 -80 -55 -80 -70 0 -19 -65
-55 -100 -55 -11 0 -20 -7 -20 -15 0 -8 -16 -21 -36 -30 -23 -9 -35 -21 -34
-32 4 -34 0 -43 -17 -44 -14 0 -13 -2 5 -9 27 -11 28 -21 2 -43 -27 -22 -36
-22 -43 4 -5 20 -7 20 -22 5 -14 -14 -15 -18 -2 -31 8 -8 27 -16 42 -19 37 -7
41 -13 14 -21 -13 -4 -29 -14 -37 -21 -8 -8 -35 -14 -67 -14 -30 0 -57 -4 -60
-10 -3 -5 -26 -10 -51 -10 l-44 0 0 50 c0 28 -4 50 -9 50 -5 0 -11 18 -15 40
-3 22 -10 40 -15 40 -5 0 -10 34 -10 77 0 79 11 102 50 103 9 0 19 7 23 15 3
10 19 15 46 15 22 0 40 5 40 10 0 6 18 10 40 10 30 0 46 7 70 30 17 16 35 41
40 55 7 17 17 25 34 25 14 0 33 10 43 23 22 27 67 57 86 57 8 0 20 -7 27 -15
21 -25 46 -17 81 25 27 32 40 40 66 40 18 0 33 5 33 10 0 6 7 10 15 10 8 0 15
-4 15 -10z m-2570 -47 c7 -27 16 -73 20 -103 12 -78 31 -153 41 -164 17 -18 9
-36 -16 -36 -20 0 -25 5 -25 25 0 14 -4 25 -9 25 -11 0 -41 79 -41 107 0 11
-7 26 -15 33 -17 14 -21 100 -4 100 5 0 9 8 7 18 -3 19 9 42 21 42 5 0 14 -21
21 -47z m2640 -83 c0 -5 -4 -10 -10 -10 -5 0 -10 5 -10 10 0 6 5 10 10 10 6 0
10 -4 10 -10z m-2680 -246 c0 -14 -4 -23 -9 -20 -7 5 -8 23 -2 44 4 12 11 -3
11 -24z m30 -44 c0 -5 -4 -10 -10 -10 -5 0 -10 5 -10 10 0 6 5 10 10 10 6 0
10 -4 10 -10z m2607 -45 c-24 -23 -30 -18 -10 9 10 13 19 20 21 15 2 -5 -3
-16 -11 -24z m-331 -95 c9 0 12 -4 9 -10 -7 -12 -75 -14 -75 -2 0 10 44 29 48
20 2 -5 10 -8 18 -8z m-5668 -1630 c17 0 32 -4 32 -10 0 -5 -16 -10 -36 -10
-20 0 -52 -10 -72 -22 -33 -20 -34 -22 -13 -29 11 -5 21 -13 21 -19 0 -5 5
-10 10 -10 6 0 10 5 10 11 0 20 28 38 69 45 23 4 41 9 41 13 0 29 175 50 202
23 6 -6 22 -12 35 -12 13 0 23 -6 23 -14 0 -7 8 -16 18 -20 24 -8 53 -27 77
-51 11 -11 33 -27 49 -35 16 -8 78 -62 137 -120 59 -58 127 -123 151 -145 59
-56 118 -123 118 -135 0 -5 4 -10 8 -10 5 0 33 -22 62 -50 29 -27 62 -50 72
-50 10 0 18 -4 18 -8 0 -5 19 -16 42 -27 44 -19 118 -89 118 -112 0 -7 5 -13
10 -13 6 0 10 -6 10 -14 0 -8 6 -21 13 -28 6 -7 21 -30 31 -51 11 -20 23 -37
28 -37 4 0 8 -7 8 -15 0 -8 7 -15 15 -15 8 0 15 -5 15 -10 0 -6 11 -23 25 -38
14 -15 25 -32 25 -38 0 -7 6 -14 13 -17 8 -3 21 -20 31 -39 9 -18 20 -40 25
-48 30 -55 41 -81 41 -99 0 -12 5 -21 10 -21 6 0 10 -13 10 -29 0 -16 7 -36
15 -45 8 -8 15 -19 15 -25 0 -6 5 -11 11 -11 14 0 39 -25 39 -39 0 -6 7 -11
15 -11 8 0 15 -7 15 -15 0 -8 5 -15 10 -15 6 0 10 -10 10 -22 0 -13 7 -32 15
-42 8 -11 15 -39 15 -62 0 -40 26 -104 43 -104 4 0 7 -5 7 -10 0 -11 10 -24
43 -61 9 -10 17 -23 17 -29 0 -5 5 -10 10 -10 6 0 10 -11 10 -25 0 -14 4 -25
10 -25 5 0 12 -11 16 -25 3 -14 10 -25 15 -25 5 0 9 -7 9 -15 0 -8 5 -15 10
-15 6 0 15 -11 20 -25 5 -14 14 -25 20 -25 5 0 10 -7 10 -15 0 -8 5 -15 10
-15 6 0 10 -11 10 -24 0 -13 7 -26 15 -30 9 -3 15 -18 15 -40 0 -19 5 -36 11
-38 5 -2 13 -22 16 -46 3 -24 16 -53 29 -67 13 -15 24 -30 24 -36 0 -5 5 -9
10 -9 6 0 10 -8 10 -17 0 -10 7 -31 15 -47 8 -15 15 -34 15 -42 0 -7 18 -48
40 -90 22 -43 40 -84 40 -92 0 -13 28 -70 40 -82 8 -8 30 -44 34 -55 18 -52
26 -86 26 -114 0 -19 6 -34 15 -37 10 -4 15 -20 15 -44 0 -41 28 -113 57 -145
38 -43 53 -83 53 -143 0 -34 5 -64 10 -67 6 -3 10 -14 10 -23 0 -10 11 -34 25
-54 17 -25 25 -51 25 -80 0 -40 14 -73 47 -106 7 -7 13 -20 13 -28 0 -8 5 -14
10 -14 6 0 10 -10 10 -22 0 -13 7 -32 15 -42 19 -25 19 -66 1 -103 -8 -15 -17
-36 -20 -46 -3 -9 -14 -20 -23 -24 -10 -4 -23 -13 -28 -20 -8 -11 -17 -12 -39
-3 -28 10 -28 10 -22 -17 19 -77 21 -101 13 -136 -5 -20 -15 -37 -22 -37 -6 0
-33 11 -59 25 -26 14 -53 25 -61 25 -7 0 -15 4 -17 9 -5 13 -48 24 -48 12 0
-6 4 -11 10 -11 20 0 22 -49 4 -79 -21 -36 -52 -40 -79 -11 -10 11 -47 34 -82
51 -36 17 -67 38 -70 45 -3 8 -10 14 -17 14 -6 0 -49 36 -94 80 -83 81 -150
130 -175 130 -8 0 -37 23 -65 50 -28 28 -54 50 -57 50 -4 0 -18 14 -32 30 -13
17 -29 30 -34 30 -6 0 -20 11 -33 25 -13 14 -27 25 -31 25 -4 0 -18 10 -29 22
-26 26 -45 40 -101 68 -22 11 -47 24 -55 29 -8 5 -43 22 -77 37 -34 16 -63 35
-63 42 0 6 -5 12 -11 12 -6 0 -25 11 -43 25 -18 14 -40 25 -48 25 -9 0 -21 7
-28 15 -7 8 -23 15 -36 15 -13 0 -24 5 -24 10 0 6 -7 10 -16 10 -8 0 -41 14
-72 32 -31 17 -69 38 -84 45 -15 8 -30 18 -33 24 -4 5 -15 9 -26 9 -10 0 -19
4 -19 9 0 5 -13 12 -30 16 -16 4 -30 11 -30 16 0 5 -11 9 -25 9 -14 0 -25 4
-25 8 0 5 -25 19 -55 33 -30 13 -55 27 -55 32 0 4 -10 7 -22 7 -13 0 -32 7
-42 15 -12 9 -42 15 -77 15 -32 0 -59 3 -61 8 -1 4 -21 16 -43 27 -22 11 -43
24 -47 30 -4 5 -38 13 -75 18 -130 15 -153 19 -153 27 0 5 -15 11 -32 15 -18
3 -42 10 -53 15 -11 5 -50 19 -87 31 -38 12 -68 25 -68 28 0 4 -16 13 -35 20
-25 9 -44 9 -72 2 -48 -14 -120 -14 -128 -1 -3 6 -16 10 -29 10 -12 0 -31 7
-42 15 -10 8 -29 15 -41 15 -13 0 -23 4 -23 9 0 5 -11 12 -25 15 -14 4 -25 11
-25 16 0 6 -11 10 -25 10 -16 0 -25 6 -25 15 0 8 -8 15 -18 15 -9 0 -29 11
-44 25 -15 14 -32 25 -38 25 -5 0 -10 4 -10 9 0 4 -10 19 -22 33 -28 31 -42
52 -65 98 -36 73 -106 182 -124 193 -11 7 -19 17 -19 24 0 7 -7 13 -15 13 -8
0 -15 4 -15 9 0 5 -11 12 -25 15 -14 4 -25 11 -25 16 0 6 -7 10 -15 10 -8 0
-15 4 -15 9 0 5 -9 13 -20 16 -11 3 -36 22 -56 41 -20 19 -41 34 -45 34 -5 0
-9 4 -9 10 0 5 -22 33 -50 61 -27 28 -50 55 -50 60 0 5 -7 9 -15 9 -8 0 -15 5
-15 11 0 6 -6 17 -13 24 -6 8 -18 21 -25 30 -17 19 -19 202 -3 218 14 14 14
104 1 112 -5 3 -10 17 -10 30 0 14 -6 46 -13 72 -9 37 -9 47 1 50 7 3 12 21
12 44 0 21 5 39 11 39 7 0 9 20 4 63 -13 129 -16 269 -7 280 6 7 10 36 11 66
0 34 6 59 15 70 9 10 16 25 16 33 0 18 31 81 43 86 4 2 7 8 7 12 0 11 56 70
66 70 3 0 29 23 56 50 27 28 54 50 59 50 5 0 9 5 9 10 0 6 10 15 23 21 20 9
47 50 47 73 0 21 36 85 48 86 6 0 12 5 12 10 0 11 56 70 67 70 3 0 16 11 29
25 13 14 28 25 34 25 6 0 23 11 38 25 15 14 35 25 45 25 10 0 20 7 23 15 4 9
19 15 40 15 19 0 34 4 34 9 0 5 15 13 33 16 17 4 38 12 45 18 7 6 85 10 192
11 129 1 183 5 192 14 6 6 26 12 43 12 17 0 35 4 41 9 16 16 47 20 114 16 36
-3 80 -5 98 -5z m5284 -349 c24 -6 75 -15 113 -21 163 -27 255 -49 255 -62 0
-4 13 -8 29 -8 16 0 34 -7 41 -15 7 -8 23 -15 36 -15 13 0 24 -4 24 -9 0 -5
13 -12 30 -16 16 -4 32 -11 35 -16 4 -5 15 -9 26 -9 10 0 19 -4 19 -10 0 -5
11 -12 25 -16 14 -3 25 -10 25 -15 0 -5 6 -9 14 -9 8 0 21 -6 28 -13 7 -6 30
-21 51 -32 20 -11 37 -23 37 -27 0 -5 7 -8 15 -8 8 0 15 -4 15 -8 0 -5 9 -13
19 -18 41 -19 212 -179 291 -273 25 -29 55 -65 68 -79 38 -45 42 -51 42 -62 0
-5 4 -10 10 -10 5 0 12 -11 16 -25 3 -14 10 -25 15 -25 5 0 9 -7 9 -15 0 -8 4
-15 10 -15 5 0 12 -11 16 -25 3 -14 10 -25 15 -25 5 0 9 -6 9 -14 0 -8 6 -21
13 -28 6 -7 28 -44 47 -81 23 -45 40 -67 52 -67 10 0 18 7 18 15 0 8 5 15 11
15 5 0 7 -4 4 -10 -3 -5 3 -10 13 -10 15 0 21 -9 26 -39 3 -21 13 -41 21 -45
8 -3 15 -15 15 -26 0 -11 5 -20 10 -20 6 0 10 -12 10 -26 0 -14 7 -32 15 -40
8 -9 15 -26 15 -40 0 -13 5 -24 10 -24 6 0 10 -17 10 -38 0 -21 5 -43 11 -49
11 -11 28 -161 31 -268 1 -73 -16 -248 -32 -330 -21 -102 -101 -345 -123 -373
-6 -8 -19 -37 -29 -65 -10 -29 -23 -54 -28 -55 -6 -2 -10 -12 -10 -22 0 -9 -7
-23 -15 -30 -8 -7 -15 -19 -15 -26 0 -8 -4 -14 -9 -14 -5 0 -12 -11 -15 -25
-4 -14 -11 -25 -16 -25 -6 0 -10 -4 -10 -10 0 -11 -62 -103 -72 -108 -5 -2 -8
-10 -8 -18 0 -8 -4 -14 -10 -14 -5 0 -10 -7 -10 -15 0 -8 -7 -15 -15 -15 -8 0
-15 -7 -15 -15 0 -8 -3 -15 -7 -15 -5 0 -19 -17 -33 -38 -28 -42 -184 -202
-197 -202 -4 0 -25 -17 -45 -38 -48 -48 -65 -62 -78 -62 -5 0 -10 -4 -10 -9 0
-5 -10 -13 -22 -17 -13 -4 -25 -9 -28 -13 -8 -10 -44 -31 -62 -37 -10 -4 -18
-10 -18 -14 0 -4 -11 -11 -25 -14 -14 -4 -25 -11 -25 -16 0 -6 -7 -10 -15 -10
-8 0 -15 -4 -15 -10 0 -5 -12 -13 -27 -16 -16 -4 -37 -13 -48 -20 -11 -8 -27
-14 -37 -14 -10 0 -18 -4 -18 -10 0 -5 -11 -10 -24 -10 -14 0 -28 -4 -31 -10
-3 -5 -13 -10 -22 -10 -8 0 -29 -6 -46 -14 -56 -24 -143 -46 -180 -46 -21 0
-37 -4 -37 -9 0 -5 -35 -12 -77 -16 -43 -4 -83 -11 -90 -16 -27 -23 -555 6
-573 31 -3 4 -23 10 -45 13 -22 4 -65 14 -95 23 -30 9 -74 21 -97 27 -24 6
-43 14 -43 19 0 4 -9 8 -19 8 -21 0 -84 30 -89 43 -2 4 -8 7 -13 7 -14 0 -49
33 -49 47 0 7 -4 13 -10 13 -5 0 -10 7 -10 15 0 8 -4 15 -9 15 -5 0 -14 13
-19 30 -6 16 -20 40 -31 52 -12 12 -21 30 -21 41 0 10 -7 25 -15 33 -8 9 -15
27 -16 42 0 15 -3 21 -6 15 -2 -7 -10 -13 -17 -13 -7 0 -22 -11 -32 -25 -10
-14 -24 -25 -31 -25 -7 0 -13 -6 -13 -13 0 -15 -84 -67 -110 -67 -10 0 -20 -5
-22 -10 -10 -32 -260 -35 -322 -5 -16 8 -34 15 -40 15 -6 0 -23 11 -38 25 -15
14 -29 25 -32 25 -7 0 -66 58 -66 65 0 3 -11 16 -25 29 -14 13 -25 33 -25 45
0 12 -6 21 -15 21 -10 0 -15 10 -15 34 0 19 -4 38 -10 41 -11 7 -14 135 -4
135 4 0 12 -8 19 -17 11 -15 14 -14 25 8 7 13 16 26 20 29 14 10 30 74 30 120
0 25 6 66 14 91 7 24 21 71 31 104 10 33 35 98 56 143 22 46 39 93 39 103 0
10 5 19 10 19 6 0 10 4 10 10 0 5 11 33 24 62 19 45 51 130 73 201 3 9 1 17
-5 17 -5 0 -13 -11 -16 -25 -4 -14 -11 -25 -16 -25 -6 0 -10 -8 -11 -17 0 -10
-9 -31 -19 -48 -10 -16 -29 -50 -42 -75 -13 -25 -29 -51 -35 -58 -7 -7 -13
-20 -13 -28 0 -8 -4 -14 -10 -14 -5 0 -10 -9 -10 -20 0 -11 -7 -23 -15 -26 -8
-4 -15 -17 -15 -30 0 -13 -5 -24 -10 -24 -6 0 -18 -18 -27 -40 -18 -41 -43
-54 -43 -22 0 10 -3 22 -7 26 -11 11 -43 99 -43 118 0 9 -4 18 -10 20 -9 3
-21 48 -40 153 -5 28 -14 68 -19 90 -14 55 -14 416 0 452 6 15 13 48 16 73 3
25 9 47 14 48 5 2 9 15 9 29 0 14 6 37 14 51 8 15 22 51 31 80 9 28 20 52 25
52 4 0 11 11 14 25 4 14 11 25 16 25 6 0 10 7 10 15 0 20 24 19 44 -1 15 -14
18 -14 36 8 11 12 19 28 20 34 0 6 7 17 15 24 8 7 15 21 15 31 0 11 4 19 10
19 5 0 12 11 16 25 3 14 10 25 14 25 4 0 10 8 14 18 8 23 53 100 82 139 13 17
24 35 24 39 0 4 11 17 25 30 14 13 25 26 25 29 0 5 37 50 68 81 6 7 12 15 12
18 0 7 89 96 96 96 2 0 17 12 32 28 42 40 156 132 166 132 3 0 17 11 32 25 15
14 35 25 45 25 11 0 19 4 19 8 0 5 53 35 118 66 64 32 130 64 145 72 16 8 34
14 42 14 7 0 26 7 41 15 16 8 38 15 50 15 11 0 24 4 30 9 5 5 29 11 54 14 56
7 164 26 210 36 50 12 312 13 362 2z"/>
<path d="M6808 9453 c-29 -7 -21 -25 10 -21 15 2 26 7 25 13 -2 12 -12 14 -35
8z"/>
<path d="M7344 9053 c-13 -14 -21 -29 -18 -32 4 -3 9 0 11 7 3 6 11 12 18 12
7 0 15 9 18 20 7 27 1 25 -29 -7z"/>
<path d="M5814 8761 c-40 -30 -54 -61 -69 -155 -4 -21 -13 -45 -21 -53 -16
-16 -19 -59 -4 -68 17 -11 50 15 50 40 0 33 18 78 37 93 13 9 14 15 5 24 -14
14 -16 78 -2 78 6 0 10 7 10 15 0 8 6 15 13 15 7 0 18 9 25 20 17 28 3 25 -44
-9z"/>
<path d="M5612 8198 c3 -29 11 -54 17 -56 6 -2 11 -15 11 -28 0 -15 6 -24 15
-24 8 0 15 4 15 10 0 5 12 16 28 24 18 11 22 15 10 16 -26 0 -68 51 -68 82 0
19 -5 28 -16 28 -14 0 -16 -9 -12 -52z"/>
<path d="M5430 8030 c0 -5 5 -10 10 -10 6 0 10 5 10 10 0 6 -4 10 -10 10 -5 0
-10 -4 -10 -10z"/>
<path d="M5430 7860 c0 -47 4 -80 10 -80 6 0 10 33 10 80 0 47 -4 80 -10 80
-6 0 -10 -33 -10 -80z"/>
<path d="M7080 7680 c0 -5 5 -10 10 -10 6 0 10 5 10 10 0 6 -4 10 -10 10 -5 0
-10 -4 -10 -10z"/>
<path d="M7154 7604 c3 -9 6 -20 6 -25 0 -5 5 -9 10 -9 6 0 10 11 10 25 0 16
-6 25 -16 25 -11 0 -14 -5 -10 -16z"/>
<path d="M6246 7564 c-4 -15 -2 -32 3 -37 8 -8 11 0 11 26 0 44 -5 47 -14 11z"/>
<path d="M7060 7560 c0 -5 7 -10 16 -10 8 0 12 5 9 10 -3 6 -10 10 -16 10 -5
0 -9 -4 -9 -10z"/>
<path d="M6980 7454 c0 -8 32 -33 42 -34 3 0 4 9 1 20 -5 18 -43 30 -43 14z"/>
<path d="M7035 7400 c3 -5 8 -10 11 -10 2 0 4 5 4 10 0 6 -5 10 -11 10 -5 0
-7 -4 -4 -10z"/>
<path d="M6900 7370 c0 -5 5 -10 10 -10 6 0 10 5 10 10 0 6 -4 10 -10 10 -5 0
-10 -4 -10 -10z"/>
<path d="M2278 8263 c-16 -10 -28 -23 -28 -30 0 -7 -4 -13 -8 -13 -9 0 -29
-44 -55 -120 -40 -116 -41 -450 -1 -537 8 -17 14 -40 14 -52 0 -12 4 -21 9
-21 5 0 12 -11 15 -25 4 -14 11 -25 16 -25 6 0 10 -7 10 -15 0 -8 7 -15 15
-15 8 0 15 -4 15 -10 0 -5 16 -10 36 -10 29 0 44 8 75 39 22 21 39 47 39 57 0
11 7 28 15 38 8 11 15 34 15 51 0 17 6 37 13 44 9 9 12 67 12 221 0 154 -3
212 -12 222 -7 6 -13 24 -13 39 0 27 -51 131 -76 156 -22 23 -76 26 -106 6z"/>
<path d="M3198 8258 c-14 -13 -28 -31 -31 -40 -4 -10 -11 -18 -17 -18 -5 0
-10 -11 -10 -24 0 -14 -4 -27 -9 -30 -5 -3 -12 -26 -15 -51 -4 -24 -11 -47
-17 -50 -12 -8 -12 -387 0 -417 6 -13 19 -56 31 -95 12 -40 26 -73 31 -73 5 0
9 -5 9 -11 0 -14 25 -39 39 -39 6 0 11 -4 11 -10 0 -5 16 -10 36 -10 39 0 94
44 94 75 0 8 7 18 15 21 8 4 15 18 15 33 0 15 3 31 8 35 14 15 34 133 39 236
5 104 -17 281 -38 305 -5 5 -9 21 -9 36 0 15 -7 32 -15 39 -8 7 -15 19 -15 28
0 8 -16 30 -36 48 -42 40 -80 44 -116 12z"/>
<path d="M1710 7140 c-31 -20 -9 -258 31 -332 5 -10 9 -27 9 -38 0 -11 4 -20
10 -20 5 0 12 -11 16 -25 3 -14 10 -25 15 -25 5 0 9 -9 9 -20 0 -10 6 -23 13
-27 6 -4 21 -24 31 -43 35 -61 206 -236 261 -266 19 -10 35 -22 35 -26 0 -5 6
-8 14 -8 8 0 16 -7 20 -15 3 -8 15 -15 26 -15 11 0 20 -4 20 -9 0 -5 11 -12
25 -15 14 -4 25 -11 25 -16 0 -6 9 -10 19 -10 11 0 26 -7 35 -15 8 -8 24 -15
35 -15 12 0 21 -4 21 -10 0 -5 9 -10 21 -10 12 0 35 -6 52 -14 18 -8 55 -17
82 -20 28 -2 88 -9 135 -15 90 -10 277 -4 286 11 3 4 29 8 58 8 30 0 67 7 82
15 16 8 39 15 52 15 12 0 22 5 22 10 0 6 11 10 25 10 14 0 25 4 25 8 0 5 25
19 55 33 30 13 55 27 55 32 0 4 9 7 20 7 11 0 23 7 26 15 4 8 11 15 18 15 6 0
23 11 38 25 15 14 30 25 34 25 4 0 17 11 30 25 13 14 26 25 29 25 5 0 80 76
130 133 38 43 54 67 61 90 4 9 10 17 14 17 4 0 11 11 14 25 4 14 11 25 16 25
6 0 10 8 10 19 0 10 7 24 15 31 8 7 15 18 15 25 0 7 7 26 15 41 8 16 15 39 15
51 0 12 5 25 10 28 6 3 10 24 10 45 0 21 5 60 11 87 9 39 8 55 -5 86 -13 30
-21 37 -44 37 -15 0 -36 -7 -46 -15 -11 -8 -32 -15 -48 -15 -15 0 -28 -4 -28
-9 0 -5 -22 -12 -50 -16 -27 -4 -52 -11 -56 -16 -3 -5 -23 -9 -45 -9 -22 0
-49 -5 -59 -10 -20 -11 -60 -18 -285 -50 -253 -36 -799 -25 -985 20 -72 17
-146 32 -190 37 -25 3 -49 9 -55 13 -5 5 -31 11 -58 15 -26 4 -50 11 -53 16
-3 5 -15 9 -28 9 -12 0 -31 7 -42 15 -22 17 -52 19 -74 5z m145 -140 c11 -5
36 -11 55 -14 19 -2 64 -12 100 -21 76 -19 141 -29 405 -67 104 -15 645 -15
750 0 44 6 114 16 155 22 132 19 184 28 250 45 36 9 83 21 105 26 83 21 94 22
111 4 16 -15 16 -19 0 -51 -9 -19 -16 -46 -16 -59 0 -14 -4 -25 -10 -25 -5 0
-10 -7 -10 -15 0 -24 -30 -78 -54 -97 -11 -10 -34 -18 -49 -18 -16 0 -38 -5
-49 -11 -11 -6 -44 -15 -72 -20 -106 -17 -172 -30 -202 -40 -17 -5 -53 -9 -80
-9 -27 0 -76 -7 -109 -15 -76 -18 -717 -22 -762 -4 -15 6 -62 15 -103 19 -99
11 -193 30 -204 41 -6 5 -26 9 -45 9 -20 1 -47 7 -61 15 -14 8 -37 14 -52 15
-16 0 -28 5 -28 10 0 6 -6 10 -14 10 -17 0 -61 57 -69 90 -3 14 -14 53 -23 87
-24 89 -2 109 81 73z"/>
<path d="M2097 4643 c-11 -10 -8 -33 3 -33 6 0 20 9 32 20 l22 20 -25 0 c-14
0 -29 -3 -32 -7z"/>
<path d="M1995 4582 c-16 -10 -31 -20 -33 -24 -2 -5 -10 -8 -18 -8 -8 0 -14
-4 -14 -10 0 -5 11 -10 25 -10 14 0 25 5 25 10 0 6 7 10 15 10 9 0 18 7 21 15
4 8 15 15 25 15 10 0 19 5 19 10 0 15 -31 11 -65 -8z"/>
<path d="M2110 4500 c-20 -9 -22 -13 -10 -20 8 -5 23 -10 33 -10 9 0 17 -4 17
-10 0 -5 9 -10 20 -10 10 0 23 -6 27 -12 9 -15 41 -36 66 -44 9 -4 17 -10 17
-14 0 -4 11 -12 25 -18 31 -14 32 -35 3 -54 -21 -14 -26 -13 -63 11 -22 14
-42 28 -45 31 -19 19 -89 40 -135 40 -32 0 -55 5 -57 12 -9 27 -245 8 -321
-26 -10 -5 -23 -3 -32 4 -26 22 -56 7 -82 -40 -23 -42 -85 -110 -101 -110 -9
-1 -62 -77 -62 -89 0 -5 -7 -11 -15 -15 -8 -3 -15 -11 -15 -19 0 -12 -41 -57
-114 -125 -25 -23 -38 -44 -42 -72 -4 -22 -11 -43 -15 -46 -5 -3 -9 -18 -9
-34 0 -16 -6 -41 -14 -57 -8 -15 -23 -46 -33 -68 -10 -22 -21 -41 -25 -43 -5
-2 -8 -9 -8 -15 -1 -17 -32 -52 -58 -66 -12 -6 -22 -18 -22 -25 0 -8 -7 -27
-15 -42 -19 -37 -19 -105 0 -151 8 -19 15 -47 15 -62 0 -14 7 -35 15 -45 8
-11 15 -30 15 -42 0 -13 5 -26 10 -29 6 -4 8 -10 5 -15 -3 -5 3 -18 15 -30 11
-11 20 -29 20 -40 0 -11 4 -20 9 -20 5 0 11 -15 14 -32 6 -38 -9 -61 -23 -38
-5 8 -12 11 -16 7 -11 -10 -6 -91 6 -95 6 -2 10 -12 10 -23 0 -10 10 -30 21
-43 22 -25 40 -55 58 -91 12 -27 87 -105 101 -105 5 0 10 -4 10 -9 0 -5 10
-13 23 -16 47 -14 77 -30 77 -42 0 -7 5 -13 11 -13 18 0 69 -57 69 -77 0 -36
50 -53 158 -53 56 0 103 -4 107 -9 3 -6 26 -13 50 -17 25 -3 45 -10 45 -14 0
-13 -54 -22 -83 -15 -14 4 -35 4 -46 0 -19 -6 -19 -7 -3 -23 25 -25 78 -43
147 -52 67 -8 112 -26 137 -53 19 -21 77 -32 98 -18 13 9 12 12 -5 25 -11 8
-33 18 -50 22 l-30 8 34 3 c19 3 37 0 40 -5 8 -12 101 -26 171 -25 90 0 240
19 253 32 6 6 21 11 33 11 13 0 25 4 29 9 7 13 64 41 82 41 7 0 13 4 13 10 0
5 11 12 25 16 14 3 25 10 25 15 0 4 17 16 38 25 20 10 41 24 45 31 4 7 13 13
20 13 18 0 81 59 73 67 -4 4 -10 3 -14 -3 -4 -6 -17 -14 -29 -18 -13 -4 -23
-12 -23 -17 0 -5 -7 -9 -15 -9 -8 0 -15 -4 -15 -9 0 -10 -53 -31 -78 -31 -10
0 -6 6 9 17 32 24 61 42 79 50 8 3 25 17 37 30 12 13 29 23 38 23 8 0 15 4 15
9 0 6 14 18 30 28 17 9 30 23 30 30 0 7 6 13 13 13 6 0 30 29 52 65 22 36 43
65 47 65 4 0 21 24 38 53 25 43 30 63 30 117 0 59 12 95 39 120 14 12 41 73
41 91 0 10 3 19 8 19 8 0 29 69 39 128 6 37 -24 219 -38 228 -5 3 -9 23 -9 44
0 35 3 39 22 37 17 -1 24 4 26 22 2 13 0 26 -5 30 -12 8 -43 70 -43 87 0 7 -9
15 -20 19 -27 8 -90 71 -90 89 0 18 -72 96 -88 96 -16 0 -15 -10 3 -56 27 -66
38 -88 68 -124 15 -19 31 -40 35 -46 22 -32 33 -51 38 -64 3 -8 12 -28 20 -43
14 -29 19 -93 8 -121 -7 -18 -24 -22 -24 -5 0 6 -7 17 -15 25 -8 9 -15 24 -15
34 0 10 -7 31 -15 46 -8 16 -15 37 -15 47 0 9 -4 17 -9 17 -5 0 -11 8 -15 18
-7 22 -25 49 -53 81 -13 14 -23 31 -23 38 0 22 -29 14 -46 -12 -19 -29 -34
-24 -34 11 0 13 -11 47 -25 76 -14 28 -25 56 -25 60 0 5 -13 23 -29 40 -48 52
-57 75 -38 96 21 23 22 42 2 42 -8 0 -15 5 -15 11 0 11 -24 39 -34 39 -3 0
-28 22 -57 50 -28 27 -60 52 -70 55 -11 4 -19 11 -19 16 0 5 -6 9 -14 9 -8 0
-16 7 -20 15 -3 8 -12 15 -21 15 -21 0 -55 36 -55 59 0 20 -87 71 -122 71 -10
0 -29 7 -41 15 -29 18 -202 29 -237 15z m15 -176 c29 -19 31 -27 9 -48 -16
-16 -96 -22 -128 -10 -17 7 -22 44 -6 44 6 0 10 7 10 15 0 21 83 20 115 -1z
m-245 -65 c0 -22 -22 -49 -40 -49 -6 0 -10 3 -8 8 33 68 48 81 48 41z m390
-24 c0 -18 -5 -25 -20 -25 -15 0 -20 7 -20 25 0 18 5 25 20 25 15 0 20 -7 20
-25z m-194 -123 c7 -4 14 -23 17 -43 4 -36 38 -107 66 -142 11 -13 12 -22 3
-40 -21 -43 -25 -106 -8 -132 21 -32 20 -39 -8 -55 -22 -11 -31 -10 -72 9 -28
14 -58 21 -73 18 -32 -7 -121 11 -121 24 0 5 -6 9 -13 9 -12 0 -67 53 -67 64
0 2 -22 28 -50 57 -39 41 -50 60 -50 85 0 37 14 51 61 61 19 3 50 16 70 29 35
22 79 23 79 3 0 -5 9 -9 21 -9 22 0 49 22 49 39 0 24 69 41 96 23z m367 -378
c31 -6 37 -11 37 -30 0 -20 -5 -24 -29 -24 -56 0 -91 12 -91 30 0 28 21 34 83
24z m-483 -209 c0 -14 -4 -25 -10 -25 -5 0 -10 11 -10 25 0 14 5 25 10 25 6 0
10 -11 10 -25z"/>
<path d="M1396 4285 c-15 -14 -30 -25 -34 -25 -4 0 -24 -16 -44 -35 -36 -32
-50 -65 -28 -65 6 0 10 5 10 10 0 6 7 10 15 10 8 0 15 7 15 15 0 8 7 15 15 15
8 0 15 4 15 8 0 5 16 26 36 46 41 42 41 59 0 21z"/>
<path d="M1008 4086 c-18 -13 -25 -56 -10 -56 8 0 16 14 40 63 6 11 -11 8 -30
-7z"/>
<path d="M1040 3676 c0 -8 -10 -18 -22 -22 -22 -7 -22 -8 6 -15 35 -10 33 -11
41 24 6 21 4 27 -9 27 -9 0 -16 -6 -16 -14z"/>
<path d="M972 3590 c0 -19 2 -27 5 -17 2 9 2 25 0 35 -3 9 -5 1 -5 -18z"/>
<path d="M830 3444 c-26 -30 -31 -42 -26 -68 12 -57 30 -86 53 -86 20 0 23 5
23 35 0 25 6 37 21 45 16 9 19 18 14 38 -3 15 -13 32 -21 38 -7 6 -14 16 -14
23 0 20 -17 12 -50 -25z m30 -65 c0 -5 -7 -9 -15 -9 -15 0 -20 12 -9 23 8 8
24 -1 24 -14z"/>
<path d="M1020 3031 c0 -44 5 -83 10 -86 6 -4 10 10 10 34 0 55 7 70 32 63 20
-5 20 -5 2 24 -42 66 -54 59 -54 -35z"/>
<path d="M6655 3587 c-10 -7 -24 -16 -31 -22 -6 -5 -25 -22 -43 -37 -17 -16
-35 -28 -41 -28 -5 0 -10 -4 -10 -8 0 -5 -17 -17 -37 -28 -21 -10 -40 -21 -43
-24 -13 -14 -108 -70 -118 -70 -7 0 -12 -4 -12 -10 0 -5 -5 -10 -11 -10 -12 0
-66 -22 -112 -46 -16 -8 -42 -14 -58 -14 -16 0 -29 -4 -29 -10 0 -5 -17 -10
-37 -10 -21 -1 -56 -7 -78 -15 -22 -8 -47 -15 -55 -15 -23 -1 -60 -36 -60 -58
0 -24 46 -71 74 -77 89 -17 186 -12 276 17 46 15 164 71 168 81 2 4 12 7 23 7
11 0 22 7 25 15 4 8 12 15 20 15 8 0 14 5 14 10 0 6 6 10 13 10 39 0 247 247
247 292 0 44 -41 61 -85 35z"/>
<path d="M8013 3593 c-15 -6 -18 -93 -3 -93 6 0 10 -6 10 -13 0 -7 14 -27 30
-45 17 -18 30 -35 30 -37 0 -9 111 -115 120 -115 6 0 10 -3 10 -8 0 -4 17 -16
38 -27 20 -11 41 -25 45 -32 4 -7 17 -13 27 -13 11 0 20 -4 20 -10 0 -5 11
-12 25 -16 14 -3 25 -10 25 -15 0 -5 8 -9 18 -9 9 0 26 -7 36 -15 11 -8 32
-15 46 -15 14 0 32 -6 38 -12 9 -9 53 -13 144 -13 96 0 132 3 135 13 3 6 11
12 19 12 8 0 14 7 14 15 0 8 5 15 10 15 18 0 10 36 -12 57 -13 11 -36 24 -53
27 -31 8 -136 30 -190 41 -16 4 -43 13 -60 20 -16 8 -49 22 -72 31 -24 10 -43
21 -43 26 0 4 -7 8 -15 8 -9 0 -33 11 -55 25 -22 14 -44 25 -50 25 -5 0 -10 3
-10 8 0 4 -18 18 -40 32 -22 13 -40 28 -40 32 0 4 -6 8 -13 8 -7 0 -31 17 -52
38 -55 52 -98 69 -132 55z"/>
<path d="M6728 2749 c-21 -12 -38 -25 -38 -30 0 -5 -7 -9 -15 -9 -8 0 -15 -7
-15 -15 0 -8 -3 -15 -8 -15 -13 0 -39 -62 -52 -123 -23 -113 39 -266 118 -291
12 -4 22 -12 22 -17 0 -5 32 -9 70 -9 58 0 77 4 110 25 21 14 45 35 51 47 7
13 15 25 18 28 27 22 41 78 41 160 0 85 -11 125 -45 166 -5 7 -21 26 -35 43
-14 17 -30 31 -37 31 -6 0 -13 5 -15 12 -3 7 -30 13 -69 15 -50 2 -72 -2 -101
-18z"/>
<path d="M7845 2752 c-43 -25 -89 -76 -118 -134 -31 -60 -14 -237 28 -284 6
-6 17 -21 25 -33 29 -42 76 -61 151 -61 38 0 69 4 69 9 0 5 10 13 23 17 71 22
146 195 118 274 -6 18 -11 46 -11 61 0 16 -4 29 -9 29 -5 0 -12 11 -15 25 -4
14 -11 25 -16 25 -6 0 -10 7 -10 15 0 8 -7 15 -15 15 -8 0 -15 4 -15 10 0 5
-18 19 -40 30 -48 25 -124 26 -165 2z"/>
<path d="M6110 2479 c0 -17 50 -158 77 -219 28 -62 46 -103 61 -140 6 -14 19
-45 30 -70 31 -73 34 -83 44 -130 20 -101 27 -148 27 -204 1 -56 3 -61 42 -97
23 -21 46 -36 50 -33 12 7 11 190 0 212 -5 9 -17 42 -26 72 -15 52 -37 106
-57 140 -4 8 -11 22 -14 30 -3 8 -17 38 -30 65 -13 28 -24 55 -24 62 0 6 -3
13 -7 15 -7 3 -17 21 -75 133 -11 22 -24 47 -29 55 -5 8 -12 22 -15 30 -3 8
-10 22 -15 30 -5 8 -13 25 -19 38 -10 23 -20 29 -20 11z"/>
<path d="M7045 1755 c-22 -8 -52 -14 -67 -14 -14 -1 -28 -4 -30 -8 -4 -11 -67
-43 -84 -43 -8 0 -14 -4 -14 -9 0 -6 -13 -18 -30 -28 -16 -9 -30 -21 -30 -25
0 -4 -11 -19 -25 -34 -21 -23 -25 -36 -25 -92 0 -64 0 -65 46 -109 36 -33 54
-43 83 -44 62 -3 124 3 151 13 54 20 339 31 505 18 87 -6 168 -16 178 -21 10
-6 56 -11 102 -11 l84 -2 42 43 c35 35 43 49 47 91 2 27 2 60 -1 72 -7 27 -78
108 -94 108 -6 0 -13 7 -17 15 -3 8 -15 15 -26 15 -11 0 -20 4 -20 8 0 12 -64
36 -145 55 -91 22 -565 23 -630 2z"/>
</g>
</svg>
